<svg width="86" height="47" viewBox="0 0 87 48" fill="none" xmlns="http://www.w3.org/2000/svg">
<path d="M20.8637 21.3305C23.0006 21.3305 24.7328 19.5545 24.7328 17.3638C24.7328 15.1731 23.0006 13.3972 20.8637 13.3972C18.7269 13.3972 16.9946 15.1731 16.9946 17.3638C16.9946 19.5545 18.7269 21.3305 20.8637 21.3305Z" stroke="white" stroke-width="0.731399" stroke-miterlimit="10"/>
<path d="M23.9585 9.27218C26.0953 9.27218 27.8276 7.49626 27.8276 5.30555C27.8276 3.11485 26.0953 1.33893 23.9585 1.33893C21.8216 1.33893 20.0894 3.11485 20.0894 5.30555C20.0894 7.49626 21.8216 9.27218 23.9585 9.27218Z" stroke="white" stroke-width="0.731399" stroke-miterlimit="10"/>
<path d="M24.1096 5.74202C24.1406 5.73996 24.1708 5.73128 24.1981 5.71656C24.2254 5.70184 24.2493 5.68142 24.2681 5.65669C24.6484 5.13252 24.1657 4.97648 24.1657 4.97648L16.6883 5.57379C16.6526 5.5784 16.6163 5.57423 16.5825 5.56164C16.5487 5.54904 16.5185 5.52841 16.4945 5.50152C16.4705 5.47463 16.4534 5.44229 16.4447 5.40731C16.436 5.37232 16.4359 5.33574 16.4445 5.30074C16.5765 4.67817 16.8052 4.08011 17.1223 3.52831C17.1608 3.45813 17.2174 3.39958 17.2862 3.3588C17.355 3.31801 17.4336 3.29649 17.5136 3.29649C17.5936 3.29649 17.6722 3.31801 17.741 3.3588C17.8099 3.39958 17.8665 3.45813 17.9049 3.52831L17.9025 4.14269C17.8999 4.18455 17.9101 4.22621 17.9317 4.26215C17.9739 4.32651 18.0307 4.37998 18.0975 4.41818C18.1291 4.43464 18.1643 4.44315 18.2 4.44295C18.2357 4.44275 18.2707 4.43387 18.3022 4.41706C18.3336 4.40025 18.3605 4.37602 18.3805 4.34648C18.4005 4.31694 18.413 4.28298 18.4169 4.24752C18.4754 3.75992 18.49 2.6677 17.4709 2.62382C16.0959 2.55555 15.7375 5.1569 15.6522 6.11503C15.648 6.1602 15.6535 6.20574 15.6683 6.24862C15.6831 6.2915 15.7068 6.33074 15.738 6.36372C15.7691 6.39671 15.8069 6.42268 15.8489 6.43991C15.8908 6.45715 15.936 6.46524 15.9813 6.46366H17.1028C17.1337 6.46385 17.1642 6.47048 17.1923 6.48313C17.2205 6.49577 17.2457 6.51416 17.2664 6.5371C17.287 6.56005 17.3026 6.58705 17.3123 6.61639C17.3219 6.64572 17.3253 6.67674 17.3222 6.70746L16.7981 12.349C16.7939 12.4019 16.7706 12.4514 16.7324 12.4883C16.6942 12.5251 16.6438 12.5467 16.5908 12.5489L15.0208 12.6416C14.9874 12.6432 14.9542 12.6373 14.9234 12.6242C14.8927 12.6112 14.8653 12.5915 14.8433 12.5664C14.8212 12.5413 14.8052 12.5116 14.7962 12.4794C14.7873 12.4473 14.7857 12.4135 14.7916 12.3807C14.846 12.1099 14.8786 11.8351 14.8891 11.5591C14.8891 11.2811 14.6453 11.1788 14.5185 11.1007C14.5012 11.0891 14.4813 11.0819 14.4605 11.0798C14.4397 11.0777 14.4188 11.0808 14.3995 11.0888C14.3802 11.0967 14.3631 11.1093 14.3499 11.1254C14.3366 11.1416 14.3276 11.1607 14.3235 11.1812L13.7018 14.1531C13.6938 14.1879 13.6945 14.2241 13.7039 14.2586C13.7132 14.293 13.7309 14.3246 13.7554 14.3506C13.8285 14.4257 13.9265 14.4716 14.0309 14.4798C14.0802 14.4841 14.1296 14.4719 14.1711 14.4449C14.2126 14.418 14.244 14.3779 14.2601 14.3311L14.5161 13.5997C14.5294 13.5597 14.554 13.5244 14.5869 13.4981C14.6197 13.4717 14.6595 13.4554 14.7014 13.451L16.5689 13.2657C16.6032 13.2621 16.6378 13.2666 16.67 13.2789C16.7022 13.2912 16.731 13.3109 16.7542 13.3364L20.7525 17.7248C20.7731 17.7476 20.7983 17.766 20.8265 17.7786C20.8546 17.7911 20.885 17.7977 20.9158 17.7979H21.067C21.1134 17.7982 21.1588 17.7837 21.1964 17.7565C21.2341 17.7293 21.2622 17.6909 21.2767 17.6468L23.1734 12.0247C23.1855 11.989 23.1882 11.9507 23.1814 11.9136C23.1746 11.8765 23.1584 11.8418 23.1344 11.8126L18.746 6.54656C18.7259 6.52381 18.711 6.49702 18.7022 6.468C18.6933 6.43898 18.6908 6.4084 18.6948 6.37833V6.32714C18.7009 6.27652 18.7245 6.22962 18.7614 6.19447C18.7983 6.15932 18.8463 6.13813 18.8972 6.13453L24.1096 5.74202ZM22.1373 13.0146L20.9183 16.3571C20.905 16.3925 20.8829 16.424 20.8541 16.4485C20.8252 16.473 20.7905 16.4897 20.7534 16.4971C20.7163 16.5044 20.6779 16.5021 20.6418 16.4904C20.6058 16.4787 20.5734 16.458 20.5477 16.4302L17.8488 13.5046C17.822 13.475 17.8036 13.4387 17.7957 13.3995C17.7878 13.3604 17.7906 13.3198 17.8038 13.2821C17.817 13.2443 17.8402 13.2109 17.8709 13.1853C17.9016 13.1597 17.9386 13.1428 17.978 13.1365L21.8788 12.5075C21.9094 12.5044 21.9402 12.5077 21.9693 12.5172C21.9985 12.5267 22.0254 12.5421 22.0483 12.5625C22.0712 12.5829 22.0897 12.6078 22.1025 12.6357C22.1152 12.6636 22.1221 12.6938 22.1226 12.7244V12.9365C22.1327 12.9613 22.1377 12.9878 22.1373 13.0146ZM21.7569 11.6761L17.7708 12.3051C17.738 12.3086 17.7047 12.3046 17.6736 12.2936C17.6424 12.2826 17.6142 12.2647 17.5908 12.2413C17.5674 12.218 17.5496 12.1897 17.5385 12.1585C17.5275 12.1274 17.5236 12.0942 17.527 12.0613L18.0146 7.42911C18.0224 7.39019 18.0405 7.35408 18.067 7.32453C18.0935 7.29499 18.1275 7.2731 18.1653 7.26115C18.2032 7.24919 18.2436 7.24761 18.2822 7.25657C18.3209 7.26553 18.3565 7.2847 18.3852 7.31209L21.8886 11.3128C21.9142 11.3427 21.9314 11.3788 21.9385 11.4174C21.9455 11.4561 21.9422 11.4959 21.9288 11.5329C21.9154 11.5699 21.8924 11.6026 21.8622 11.6277C21.832 11.6529 21.7957 11.6696 21.7569 11.6761Z" fill="white" stroke="white" stroke-width="0.2438" stroke-miterlimit="10"/>
<path d="M65.6303 40.2972L67.3101 35.8307L63.4995 33.0465H68.3731L69.9309 28.6216L71.2012 33.127H75.8699L71.9374 35.7503L73.1272 40.2972L69.6847 37.7153" fill="#F57520"/>
<path d="M45.5347 47.7628H50.4261L64.033 0.627502H59.1417L45.5347 47.7628Z" fill="white"/>
<path fill-rule="evenodd" clip-rule="evenodd" d="M52.7383 47.7628L54.2502 43.0493H71.4145L71.7135 43.0495C72.1615 43.05 72.5882 43.0505 72.9986 43.0403C75.29 42.9169 77.3833 41.6646 78.9995 40.0182C80.6744 38.3121 81.6131 36.0157 81.6134 33.6235C81.6135 31.2156 80.6631 28.9051 78.9693 27.1955C78.1052 26.3232 77.094 25.9124 75.9914 25.7165C75.2809 25.6217 74.5645 25.5653 73.8648 25.5419C73.5559 25.5356 73.2432 25.5335 72.9276 25.5314C72.8257 25.5307 72.7235 25.53 72.6211 25.5292H58.8748L60.2088 21.2603H66.9678C68.1738 21.2603 68.8877 21.2729 69.5087 21.2839C70.5363 21.3021 71.3097 21.3158 73.6379 21.2603C74.8619 21.2312 75.6672 21.1925 76.3827 20.9992C77.54 20.5659 78.6006 19.8822 79.4828 18.9832C81.0516 17.3844 81.9309 15.2324 81.9312 12.9907C81.9313 10.7342 81.0694 8.27717 79.4828 6.67505C77.8965 5.07327 75.7531 4.82592 73.5007 4.80743H65.1002L66.0785 0.627511H72.126C72.6095 0.627511 72.9971 0.622948 73.3334 0.61899C74.4817 0.605474 75.0309 0.59901 76.7506 0.805378C76.989 0.833986 77.2073 0.877997 77.4097 0.935744C79.4346 1.29055 81.2992 2.03294 82.8138 3.56234C85.2684 6.04111 86.6069 9.49953 86.6228 12.9907C86.6076 16.4597 85.2409 19.7856 82.8138 22.2604C82.5035 22.5768 82.1776 22.8528 81.838 23.0938C82.0669 23.2688 82.2899 23.4645 82.5066 23.6832C85.1271 26.3283 86.605 29.8981 86.622 33.6235C86.6057 37.3253 85.1467 40.8745 82.5556 43.5154C80.8927 45.2102 78.8475 46.4084 76.6185 47.0711C75.3662 47.51 73.9359 47.7628 72.3039 47.7628H52.7383Z" fill="white"/>
<path d="M0.88916 0.627258H5.69163L17.1642 40.381L15.3855 47.7626L0.88916 0.627258Z" fill="white"/>
<path d="M17.2539 47.7627H21.9674L31.9281 9.1651L43.3117 47.7627L45.624 40.2033L33.7068 0.62738H29.2601L17.2539 47.7627Z" fill="white"/>
</svg>
